<svg xmlns:x="http://ns.adobe.com/Extensibility/1.0/" xmlns:i="http://ns.adobe.com/AdobeIllustrator/10.0/" xmlns:graph="http://ns.adobe.com/Graphs/1.0/" xmlns="http://www.w3.org/2000/svg" xmlns:xlink="http://www.w3.org/1999/xlink" version="1.1" x="0px" y="0px" viewBox="0 0 100 125" enable-background="new 0 0 100 100" xml:space="preserve"><metadata><sfw xmlns="http://ns.adobe.com/SaveForWeb/1.0/"><slices/><sliceSourceBounds width="1447.2" height="1444.2" x="1" y="-1446.1" bottomLeftOrigin="true"/></sfw></metadata><path d="M92.8,70.6L81.4,59.1c-2-2.1-4.3-3.1-6.8-3.1c-2.5,0-4.9,1.1-6.9,3.1l-6.7,6.7c-0.6-0.3-1.2-0.6-1.8-0.9  c-0.8-0.4-1.5-0.7-2.1-1.1c-6.2-3.9-11.8-9.1-17.2-15.7c-2.7-3.4-4.5-6.2-5.8-9.2c1.8-1.6,3.4-3.3,5-4.9c0.6-0.6,1.2-1.2,1.8-1.8  c2.1-2.1,3.2-4.5,3.2-7c0-2.5-1.1-4.9-3.2-7l-5.7-5.7c-0.7-0.7-1.3-1.3-1.9-2c-1.3-1.3-2.6-2.6-3.9-3.8c-2-2-4.3-3-6.8-3  c-2.5,0-4.8,1-6.9,3L8.6,14c-2.6,2.6-4.1,5.8-4.4,9.5c-0.4,4.6,0.5,9.4,2.7,15.3c3.3,9.1,8.4,17.5,15.9,26.5  c9.1,10.8,20,19.4,32.5,25.4c4.8,2.3,11.1,4.9,18.2,5.4c0.4,0,0.9,0,1.3,0c4.7,0,8.7-1.7,11.8-5.1c0,0,0.1-0.1,0.1-0.1  c1.1-1.3,2.3-2.5,3.7-3.8c0.9-0.9,1.8-1.8,2.7-2.7C97,80.2,97,74.7,92.8,70.6z M89.2,81.1c-0.8,0.9-1.6,1.7-2.5,2.5  c-1.3,1.3-2.7,2.6-4,4.1c-2.2,2.3-4.7,3.4-8.1,3.4c-0.3,0-0.7,0-1,0c-6.2-0.4-12-2.8-16.4-4.9c-11.8-5.7-22.2-13.8-30.8-24.1  c-7.1-8.5-11.9-16.5-15-25c-1.9-5.2-2.7-9.3-2.4-13.2c0.2-2.5,1.2-4.6,3-6.4l7.1-7.1c1.1-1,2.3-1.6,3.4-1.6c1.1,0,2.3,0.5,3.3,1.6  c1.3,1.2,2.5,2.4,3.8,3.7c0.7,0.7,1.3,1.3,2,2l5.7,5.7c1.2,1.2,1.7,2.3,1.7,3.4c0,1.1-0.6,2.3-1.7,3.4c-0.6,0.6-1.2,1.2-1.8,1.8  c-1.8,1.8-3.4,3.5-5.2,5.1c0,0-0.1,0.1-0.1,0.1c-1.6,1.6-1.4,3.2-1,4.4c0,0.1,0,0.1,0.1,0.2c1.5,3.5,3.5,6.9,6.7,10.9  c5.7,7.1,11.8,12.5,18.4,16.8c0.8,0.5,1.7,1,2.5,1.4c0.8,0.4,1.5,0.7,2.1,1.1c0.1,0,0.1,0.1,0.2,0.1c0.7,0.3,1.3,0.5,1.9,0.5  c1.6,0,2.6-1,2.9-1.4l7.1-7.1c1.1-1.1,2.2-1.6,3.4-1.6c1.4,0,2.5,0.9,3.3,1.6l11.5,11.5C92.1,76.9,90.8,79.4,89.2,81.1z"/><text x="0" y="115" fill="#000000" font-size="5px" font-weight="bold" font-family="'Helvetica Neue', Helvetica, Arial-Unicode, Arial, Sans-serif">Created by Gregor Cresnar</text><text x="0" y="120" fill="#000000" font-size="5px" font-weight="bold" font-family="'Helvetica Neue', Helvetica, Arial-Unicode, Arial, Sans-serif">from the Noun Project</text></svg>