<svg xmlns="http://www.w3.org/2000/svg" xmlns:xlink="http://www.w3.org/1999/xlink" version="1.1" x="0px" y="0px" viewBox="0 0 100 125" style="enable-background:new 0 0 100 100;" xml:space="preserve"><path d="M11,32.5175781h20.5175781c0.5527344,0,1-0.4477539,1-1V11c0-0.5522461-0.4472656-1-1-1H11c-0.5527344,0-1,0.4477539-1,1  v20.5175781C10,32.0698242,10.4472656,32.5175781,11,32.5175781z M12,12h18.5175781v18.5175781H12V12z"/><path d="M61.2587891,11c0-0.5522461-0.4472656-1-1-1H39.7412109c-0.5527344,0-1,0.4477539-1,1v20.5175781  c0,0.5522461,0.4472656,1,1,1h20.5175781c0.5527344,0,1-0.4477539,1-1V11z M59.2587891,30.5175781H40.7412109V12h18.5175781  V30.5175781z"/><path d="M90,11c0-0.5522461-0.4472656-1-1-1H68.4824219c-0.5527344,0-1,0.4477539-1,1v20.5175781c0,0.5522461,0.4472656,1,1,1H89  c0.5527344,0,1-0.4477539,1-1V11z M88,30.5175781H69.4824219V12H88V30.5175781z"/><path d="M11,61.2587891h20.5175781c0.5527344,0,1-0.4477539,1-1V39.7412109c0-0.5522461-0.4472656-1-1-1H11  c-0.5527344,0-1,0.4477539-1,1v20.5175781C10,60.8110352,10.4472656,61.2587891,11,61.2587891z M12,40.7412109h18.5175781  v18.5175781H12V40.7412109z"/><path d="M61.2587891,39.7412109c0-0.5522461-0.4472656-1-1-1H39.7412109c-0.5527344,0-1,0.4477539-1,1v20.5175781  c0,0.5522461,0.4472656,1,1,1h20.5175781c0.5527344,0,1-0.4477539,1-1V39.7412109z M59.2587891,59.2587891H40.7412109V40.7412109  h18.5175781V59.2587891z"/><path d="M90,39.7412109c0-0.5522461-0.4472656-1-1-1H68.4824219c-0.5527344,0-1,0.4477539-1,1v20.5175781  c0,0.5522461,0.4472656,1,1,1H89c0.5527344,0,1-0.4477539,1-1V39.7412109z M88,59.2587891H69.4824219V40.7412109H88V59.2587891z"/><path d="M11,90h20.5175781c0.5527344,0,1-0.4477539,1-1V68.4824219c0-0.5522461-0.4472656-1-1-1H11c-0.5527344,0-1,0.4477539-1,1V89  C10,89.5522461,10.4472656,90,11,90z M12,69.4824219h18.5175781V88H12V69.4824219z"/><path d="M60.2587891,67.4824219H39.7412109c-0.5527344,0-1,0.4477539-1,1V89c0,0.5522461,0.4472656,1,1,1h20.5175781  c0.5527344,0,1-0.4477539,1-1V68.4824219C61.2587891,67.9301758,60.8115234,67.4824219,60.2587891,67.4824219z M59.2587891,88  H40.7412109V69.4824219h18.5175781V88z"/><path d="M68.4824219,90H89c0.5527344,0,1-0.4477539,1-1V68.4824219c0-0.5522461-0.4472656-1-1-1H68.4824219  c-0.5527344,0-1,0.4477539-1,1V89C67.4824219,89.5522461,67.9296875,90,68.4824219,90z M69.4824219,69.4824219H88V88H69.4824219  V69.4824219z"/><text x="0" y="115" fill="#000000" font-size="5px" font-weight="bold" font-family="'Helvetica Neue', Helvetica, Arial-Unicode, Arial, Sans-serif">Created by Made x Made Icons</text><text x="0" y="120" fill="#000000" font-size="5px" font-weight="bold" font-family="'Helvetica Neue', Helvetica, Arial-Unicode, Arial, Sans-serif">from the Noun Project</text></svg>